<?xml version="1.0" encoding="UTF-8"?>
<!DOCTYPE svg PUBLIC "-//W3C//DTD SVG 1.1//EN" "http://www.w3.org/Graphics/SVG/1.1/DTD/svg11.dtd">
<svg version="1.1" xmlns="http://www.w3.org/2000/svg" xmlns:xlink="http://www.w3.org/1999/xlink" x="0" y="0" width="400" height="300" viewBox="0, 0, 400, 300">
  <g id="No preview available">
    <path d="M52.064,130.588 L28.832,102.94 L22.688,102.94 L22.688,137.5 L27.872,137.5 L27.872,109.852 L51.104,137.5 L57.248,137.5 L57.248,102.94 L52.064,102.94 z" fill="#020203"/>
    <path d="M68.768,102.94 C65.312,102.94 62.528,105.724 62.528,109.18 L62.528,131.26 C62.528,134.716 65.312,137.5 68.768,137.5 L90.848,137.5 C94.304,137.5 97.088,134.716 97.088,131.26 L97.088,109.18 C97.088,105.724 94.304,102.94 90.848,102.94 z M68.768,132.316 C68.192,132.316 67.712,131.836 67.712,131.26 L67.712,109.18 C67.712,108.604 68.192,108.124 68.768,108.124 L90.848,108.124 C91.424,108.124 91.904,108.604 91.904,109.18 L91.904,131.26 C91.904,131.836 91.424,132.316 90.848,132.316 z" fill="#020203"/>
    <path d="M116.288,102.988 L116.288,137.5 L121.472,137.5 L121.472,125.068 C121.808,125.116 122.144,125.164 122.528,125.164 L144.608,125.164 C148.064,125.164 150.848,122.332 150.848,118.924 L150.848,109.228 C150.848,105.82 148.064,102.988 144.608,102.988 z M145.664,118.924 C145.664,119.5 145.184,119.98 144.608,119.98 L122.528,119.98 C121.952,119.98 121.472,119.5 121.472,118.924 L121.472,109.228 C121.472,108.652 121.952,108.172 122.528,108.172 L144.608,108.172 C145.184,108.172 145.664,108.652 145.664,109.228 z" fill="#020203"/>
    <path d="M188.768,109.228 C188.768,105.82 185.984,102.988 182.528,102.988 L154.208,102.988 L154.208,137.5 L159.392,137.5 L159.392,125.068 C159.728,125.116 160.064,125.164 160.448,125.164 L172.256,125.164 L182.624,137.5 L188.768,137.5 L188.768,136.78 L179.024,125.164 L182.528,125.164 C185.984,125.164 188.768,122.332 188.768,118.924 z M160.448,119.98 C159.872,119.98 159.392,119.5 159.392,118.924 L159.392,109.228 C159.392,108.652 159.872,108.172 160.448,108.172 L182.528,108.172 C183.104,108.172 183.584,108.652 183.584,109.228 L183.584,118.924 C183.584,119.5 183.104,119.98 182.528,119.98 z" fill="#020203"/>
    <path d="M225.632,102.94 L193.952,102.94 L193.952,137.5 L225.632,137.5 L225.632,132.316 L199.136,132.316 L199.136,122.812 L220.448,122.812 L220.448,117.628 L199.136,117.628 L199.136,108.124 L225.632,108.124 z" fill="#020203"/>
    <path d="M252.176,131.644 L235.616,102.94 L229.616,102.94 L249.584,137.5 L254.768,137.5 L274.688,102.94 L268.736,102.94 z" fill="#020203"/>
    <path d="M278.816,137.5 L284,137.5 L284,102.94 L278.816,102.94 z" fill="#020203"/>
    <path d="M321.104,102.94 L289.424,102.94 L289.424,137.5 L321.104,137.5 L321.104,132.316 L294.608,132.316 L294.608,122.812 L315.92,122.812 L315.92,117.628 L294.608,117.628 L294.608,108.124 L321.104,108.124 z" fill="#020203"/>
    <path d="M372.8,102.94 L363.632,128.14 L354.464,102.94 L348.944,102.94 L339.776,128.14 L330.608,102.94 L325.088,102.94 L337.664,137.5 L341.84,137.5 L341.792,137.452 L341.888,137.5 L351.68,110.572 L361.52,137.5 L365.744,137.5 L378.32,102.94 z" fill="#020203"/>
    <path d="M43.976,160.94 C40.52,160.94 37.736,163.724 37.736,167.18 L37.736,195.5 L42.92,195.5 L42.92,183.404 L67.112,183.404 L67.112,195.5 L72.296,195.5 L72.296,167.18 C72.296,163.724 69.512,160.94 66.056,160.94 z M42.92,178.22 L42.92,167.18 C42.92,166.604 43.4,166.124 43.976,166.124 L66.056,166.124 C66.632,166.124 67.112,166.604 67.112,167.18 L67.112,178.22 z" fill="#020203"/>
    <path d="M99.32,189.644 L82.76,160.94 L76.76,160.94 L96.728,195.5 L101.912,195.5 L121.832,160.94 L115.88,160.94 z" fill="#020203"/>
    <path d="M131.288,160.94 C127.832,160.94 125.048,163.724 125.048,167.18 L125.048,195.5 L130.232,195.5 L130.232,183.404 L154.424,183.404 L154.424,195.5 L159.608,195.5 L159.608,167.18 C159.608,163.724 156.824,160.94 153.368,160.94 z M130.232,178.22 L130.232,167.18 C130.232,166.604 130.712,166.124 131.288,166.124 L153.368,166.124 C153.944,166.124 154.424,166.604 154.424,167.18 L154.424,178.22 z" fill="#020203"/>
    <path d="M165.128,195.5 L170.312,195.5 L170.312,160.94 L165.128,160.94 z" fill="#020203"/>
    <path d="M175.688,195.5 L210.248,195.5 L210.248,190.316 L180.872,190.316 L180.872,160.892 L175.688,160.892 z" fill="#020203"/>
    <path d="M219.368,160.94 C215.912,160.94 213.128,163.724 213.128,167.18 L213.128,195.5 L218.312,195.5 L218.312,183.404 L242.504,183.404 L242.504,195.5 L247.688,195.5 L247.688,167.18 C247.688,163.724 244.904,160.94 241.448,160.94 z M218.312,178.22 L218.312,167.18 C218.312,166.604 218.792,166.124 219.368,166.124 L241.448,166.124 C242.024,166.124 242.504,166.604 242.504,167.18 L242.504,178.22 z" fill="#020203"/>
    <path d="M285.8,176.924 C286.184,176.108 286.424,175.196 286.424,174.236 L286.424,167.18 C286.424,163.724 283.64,160.94 280.184,160.94 L253.304,160.94 L253.304,195.5 L281.624,195.5 C285.08,195.5 287.864,192.716 287.864,189.26 L287.864,181.532 C287.864,179.708 287.048,178.028 285.8,176.924 z M280.184,166.124 C280.76,166.124 281.24,166.604 281.24,167.18 L281.24,174.236 C281.24,174.812 280.76,175.292 280.184,175.292 L259.544,175.292 C258.968,175.292 258.488,174.812 258.488,174.236 L258.488,167.18 C258.488,166.604 258.968,166.124 259.544,166.124 z M282.68,189.26 C282.68,189.836 282.2,190.316 281.624,190.316 L259.544,190.316 C258.968,190.316 258.488,189.836 258.488,189.26 L258.488,181.532 C258.488,180.956 258.968,180.476 259.544,180.476 L281.624,180.476 C282.2,180.476 282.68,180.956 282.68,181.532 z" fill="#020203"/>
    <path d="M293.144,195.5 L327.704,195.5 L327.704,190.316 L298.328,190.316 L298.328,160.892 L293.144,160.892 z" fill="#020203"/>
    <path d="M362.744,160.94 L331.064,160.94 L331.064,195.5 L362.744,195.5 L362.744,190.316 L336.248,190.316 L336.248,180.812 L357.56,180.812 L357.56,175.628 L336.248,175.628 L336.248,166.124 L362.744,166.124 z" fill="#020203"/>
    <path d="M2.5,2.5 L398.5,2.5 L398.5,298.5 L2.5,298.5 L2.5,2.5 z" fill-opacity="0" stroke="#000000" stroke-width="2" stroke-dasharray="12,10"/>
  </g>
</svg>
